<?xml version="1.0" encoding="utf-8"?>
<!-- Generator: Adobe Illustrator 23.0.2, SVG Export Plug-In . SVG Version: 6.00 Build 0)  -->
<svg version="1.1" id="Layer_1" xmlns="http://www.w3.org/2000/svg" xmlns:xlink="http://www.w3.org/1999/xlink" x="0px" y="0px"
	 viewBox="0 0 110.4 92" style="enable-background:new 0 0 110.4 92;" xml:space="preserve">
<title>ForgeIcon_svg</title>
<g>
	<g id="Layer_1-2">
		<path d="M45,31.9l1.2-0.4l2.4,6.8c0.1,0.2,0.3,0.3,0.5,0.3c0,0,0,0,0,0l8.5-3c0.2-0.1,0.3-0.3,0.3-0.5l-2.4-6.9l31.5-11
			c1-0.3,1.6-1.5,1.3-2.5c0,0,0-0.1,0-0.1l-0.8-2.2c-0.4-1-1.5-1.6-2.5-1.3c0,0,0,0-0.1,0L53.4,22.1l-3.4-9.9l-6.2,2.2l-0.3,9.2
			l0.6,1.8l-1.2,0.4L45,31.9z"/>
		<polygon points="31.9,27.4 36.6,32.5 37.4,30.5 44.8,36.8 35.2,24.8 34.3,27.3 30.5,22.5 29.6,25 23.5,20 31.1,29.6 		"/>
		<polygon points="35,34 35.3,35.8 29.3,34.2 37.4,38.6 37.2,36.7 44.8,38 		"/>
		<path d="M76.7,61.5L98,51.9v-3.3H74.8v-2.8H35.5v2.8H12.4v3.2l21.3,9.7c2,0.9,3.6,2.4,4.6,4.2c0.6,1.1,1,2.3,1.1,3.5
			c0,0.4-0.1,0.8-0.5,1L30.5,74v7h14.8c0,0-0.1-7.2,9.9-7.2s9.9,7.2,9.9,7.2h14.8v-7l-8.4-3.8c-0.3-0.2-0.5-0.6-0.5-1
			c0.1-1.2,0.5-2.4,1.1-3.5C73.1,63.9,74.7,62.4,76.7,61.5z"/>
	</g>
</g>
</svg>
