<?xml version="1.0" encoding="utf-8"?>
<!-- Generator: Adobe Illustrator 23.0.2, SVG Export Plug-In . SVG Version: 6.00 Build 0)  -->
<svg version="1.1" id="Layer_1" xmlns="http://www.w3.org/2000/svg" xmlns:xlink="http://www.w3.org/1999/xlink" x="0px" y="0px"
	 viewBox="0 0 338.3 320.3" style="enable-background:new 0 0 338.3 320.3;" xml:space="preserve">
<style type="text/css">
	.st0{opacity:0.4;}
	.st1{fill:#FFFFFF;}
</style>
<title>Asset 3</title>
<g class="st0">
	<g id="Layer_1-2">
		<path class="st1" d="M184.9,117.6c-23.5-8-49,4.5-57,28c-5.6,16.5-1.2,34.8,11.3,46.9c8.3,8.1,19.5,12.6,31.1,12.6
			c24.8,0.1,45-20,45-44.8c0-12.2-4.9-24-13.7-32.5C196.8,123.2,191.1,119.8,184.9,117.6z M197.7,186.5
			c-10.2,10.6-25.6,14.3-39.6,9.6c-5.3-1.8-10.1-4.7-14.1-8.6c-15-14.7-15.3-38.7-0.6-53.7c10.2-10.4,25.4-14.1,39.1-9.5
			c5.3,1.8,10.1,4.7,14.1,8.6C211.7,147.4,212.1,171.4,197.7,186.5L197.7,186.5z"/>
		<path class="st1" d="M261.7,174.9c2.5-0.6,4.3-2.9,4.3-5.5l-0.4-22c-0.1-2.4-1.7-4.5-4-5.2c-0.2-0.1-0.2-0.1-17.4-3.6
			c-1.8-6.2-4.4-12.2-7.8-17.8l9-14.8c1.4-2.2,1-5.1-0.9-6.9l-15.9-15.3c-0.6-0.6-1.3-1-2.1-1.3c-1.6-0.6-3.4-0.3-4.9,0.6l-14.4,9.6
			c-3.9-2.1-7.9-3.9-12.1-5.3c-2-0.7-4-1.3-6-1.8l-4.1-16.8c-0.4-1.9-1.8-3.4-3.6-4c-0.6-0.2-1.2-0.3-1.9-0.3l-22,0.4
			c-2.6,0-4.9,1.9-5.4,4.5l-3.4,17c-6.2,1.8-12.2,4.4-17.8,7.7l-14.8-9c-0.3-0.2-0.7-0.4-1.1-0.5c-2-0.7-4.3-0.2-5.8,1.4L94,101.9
			c-1.8,1.9-2.1,4.8-0.6,7l9.6,14.4c-3.1,5.7-5.5,11.8-7.1,18.1l-16.8,4c-2.5,0.6-4.3,2.9-4.3,5.5l0.4,22c0.1,2.4,1.7,4.5,4,5.2
			c0.2,0.1,0.2,0.1,17.5,3.6c1.8,6.2,4.4,12.2,7.8,17.8l-9,14.8c-1.4,2.2-1,5.1,0.9,6.9l15.9,15.3c1.9,1.8,4.8,2.1,6.9,0.6l14.4-9.6
			c3.9,2.1,7.9,3.9,12.1,5.3c2,0.7,4,1.2,6,1.8l4.1,16.8c0.4,1.9,1.8,3.4,3.6,4l0,0c0.6,0.2,1.2,0.3,1.8,0.3h0.1l22-0.4
			c2.6-0.1,4.8-1.9,5.4-4.5l3.4-17c6.2-1.8,12.2-4.4,17.8-7.8l14.8,9c0.3,0.2,0.7,0.4,1.1,0.5c2,0.7,4.3,0.1,5.8-1.4l15.3-15.9
			c1.8-1.9,2.1-4.8,0.6-6.9l-9.6-14.4c3.1-5.7,5.5-11.7,7.1-18L261.7,174.9z M238.4,175.9c-1.5,6.7-4,13.1-7.5,19l-1.4,2.4
			l11.3,17.1l-13.7,14.2L209.7,218l-2.4,1.5c-5.8,3.6-12.1,6.4-18.7,8.1l-2.7,0.7l-4.1,20.1l-19.8,0.4l-4.8-19.9l-2.7-0.6
			c-6.7-1.5-13.1-4-19-7.5l-2.4-1.4l-17.1,11.3L101.9,217l10.7-17.5l-1.5-2.4c-3.6-5.8-6.4-12.1-8.2-18.7l-0.7-2.7l-2.1-0.4l-18-3.6
			l-0.4-19.8l19.9-4.8l0.6-2.7c1.5-6.7,4-13.1,7.5-19l1.4-2.4l-11.2-17.1l13.7-14.2l17.4,10.7l2.4-1.5c5.8-3.6,12.1-6.4,18.7-8.2
			l2.7-0.7l4.1-20.1l19.8-0.4l4.8,19.9l2.7,0.6c6.7,1.5,13.1,4.1,19,7.5l2.4,1.4l17.1-11.3l14.2,13.7l-10.7,17.5l1.5,2.3
			c3.6,5.8,6.4,12.1,8.2,18.7l0.7,2.7l2.1,0.4l17.9,3.6l0.4,19.8l-19.9,4.8L238.4,175.9z"/>
		<path class="st1" d="M322.7,157.1c1.7,84.1-65.2,153.7-149.3,155.4c-70.4,1.4-132.7-45.7-150.5-113.9l16.7,11.6l3-4.4l-26.2-18.3
			L0,215.1l4.6,2.7L15.2,200c18.3,70.8,82.1,120.3,155.2,120.3c1.1,0,2.1,0,3.2,0c88.3-1.8,158.7-75,157-163.4L322.7,157.1z"/>
		<path class="st1" d="M51.3,65.1C88,19.4,147.6-1.3,204.8,11.7c53.6,12.4,97.1,54,112.2,106.8l-17.8-11l-2.8,4.5l27.2,16.9
			l14.9-28.4l-4.7-2.5l-9.3,17.8C308.3,60.5,262.7,17,206.5,4.1C120.3-15.9,34.2,37.8,14.3,124c-2.2,9.7-3.6,19.5-4,29.5l7.8,0.3
			C19.5,121.5,31.1,90.4,51.3,65.1z"/>
	</g>
</g>
</svg>
