<svg width="88" height="16" viewBox="0 0 88 16" fill="none" xmlns="http://www.w3.org/2000/svg">
<rect width="88" height="16" fill="white"/>
<path d="M16 8C16 12.4183 12.4183 16 8 16C3.58172 16 0 12.4183 0 8C0 3.58172 3.58172 0 8 0C12.4183 0 16 3.58172 16 8Z" fill="url(#paint0_linear)"/>
<path d="M40 8C40 12.4183 36.4183 16 32 16C27.5817 16 24 12.4183 24 8C24 3.58172 27.5817 0 32 0C36.4183 0 40 3.58172 40 8Z" fill="url(#paint1_linear)"/>
<path d="M56 16C60.4183 16 64 12.4183 64 8C64 3.58172 60.4183 0 56 0C51.5817 0 48 3.58172 48 8C48 12.4183 51.5817 16 56 16Z" fill="url(#paint2_linear)"/>
<circle cx="80" cy="8" r="8" fill="#F0F3F6"/>
<defs>
<linearGradient id="paint0_linear" x1="0" y1="8" x2="88" y2="8" gradientUnits="userSpaceOnUse">
<stop stop-color="#F3716C"/>
<stop offset="1" stop-color="#D50E07"/>
</linearGradient>
<linearGradient id="paint1_linear" x1="0" y1="8" x2="88" y2="8" gradientUnits="userSpaceOnUse">
<stop stop-color="#F3716C"/>
<stop offset="1" stop-color="#D50E07"/>
</linearGradient>
<linearGradient id="paint2_linear" x1="0" y1="8" x2="88" y2="8" gradientUnits="userSpaceOnUse">
<stop stop-color="#F3716C"/>
<stop offset="1" stop-color="#D50E07"/>
</linearGradient>
</defs>
</svg>
