<svg width="88" height="16" viewBox="0 0 88 16" fill="none" xmlns="http://www.w3.org/2000/svg">
<path d="M8 16C12.4183 16 16 12.4183 16 8C16 3.58172 12.4183 0 8 0C3.58172 0 0 3.58172 0 8C0 12.4183 3.58172 16 8 16Z" fill="url(#paint0_linear)"/>
<path d="M32 16C36.4183 16 40 12.4183 40 8C40 3.58172 36.4183 0 32 0C27.5817 0 24 3.58172 24 8C24 12.4183 27.5817 16 32 16Z" fill="url(#paint1_linear)"/>
<path d="M64 8C64 12.4183 60.4183 16 56 16C51.5817 16 48 12.4183 48 8C48 3.58172 51.5817 0 56 0C60.4183 0 64 3.58172 64 8Z" fill="url(#paint2_linear)"/>
<path d="M80 16C84.4183 16 88 12.4183 88 8C88 3.58172 84.4183 0 80 0C75.5817 0 72 3.58172 72 8C72 12.4183 75.5817 16 80 16Z" fill="url(#paint3_linear)"/>
<defs>
<linearGradient id="paint0_linear" x1="0" y1="8" x2="88" y2="8" gradientUnits="userSpaceOnUse">
<stop stop-color="#F3716C"/>
<stop offset="1" stop-color="#D50E07"/>
</linearGradient>
<linearGradient id="paint1_linear" x1="0" y1="8" x2="88" y2="8" gradientUnits="userSpaceOnUse">
<stop stop-color="#F3716C"/>
<stop offset="1" stop-color="#D50E07"/>
</linearGradient>
<linearGradient id="paint2_linear" x1="0" y1="8" x2="88" y2="8" gradientUnits="userSpaceOnUse">
<stop stop-color="#F3716C"/>
<stop offset="1" stop-color="#D50E07"/>
</linearGradient>
<linearGradient id="paint3_linear" x1="0" y1="8" x2="88" y2="8" gradientUnits="userSpaceOnUse">
<stop stop-color="#F3716C"/>
<stop offset="1" stop-color="#D50E07"/>
</linearGradient>
</defs>
</svg>
