<svg width="88" height="16" viewBox="0 0 88 16" fill="none" xmlns="http://www.w3.org/2000/svg">
<rect width="88" height="16" fill="white"/>
<path d="M8 16C12.4183 16 16 12.4183 16 8C16 3.58172 12.4183 0 8 0C3.58172 0 0 3.58172 0 8C0 12.4183 3.58172 16 8 16Z" fill="url(#paint0_linear)"/>
<path d="M32 16C36.4183 16 40 12.4183 40 8C40 3.58172 36.4183 0 32 0C27.5817 0 24 3.58172 24 8C24 12.4183 27.5817 16 32 16Z" fill="url(#paint1_linear)"/>
<circle cx="56" cy="8" r="8" fill="#F0F3F6"/>
<circle cx="80" cy="8" r="8" fill="#F0F3F6"/>
<defs>
<linearGradient id="paint0_linear" x1="0" y1="8.00001" x2="85.5" y2="8.00001" gradientUnits="userSpaceOnUse">
<stop stop-color="#F3716C"/>
<stop offset="1" stop-color="#D50E07"/>
</linearGradient>
<linearGradient id="paint1_linear" x1="0" y1="8.00001" x2="85.5" y2="8.00001" gradientUnits="userSpaceOnUse">
<stop stop-color="#F3716C"/>
<stop offset="1" stop-color="#D50E07"/>
</linearGradient>
</defs>
</svg>
